<mxfile host="app.diagrams.net" modified="2023-11-07T08:14:03.991Z" agent="Mozilla/5.0 (Windows NT 10.0; Win64; x64) AppleWebKit/537.36 (KHTML, like Gecko) Chrome/116.0.5845.931 YaBrowser/23.9.3.931 Yowser/2.5 Safari/537.36" etag="wsjCsxEcjj6J_ZvRO4qA" version="22.0.8" type="device">
  <diagram name="Page-1" id="e7e014a7-5840-1c2e-5031-d8a46d1fe8dd">
    <mxGraphModel dx="1386" dy="781" grid="1" gridSize="10" guides="1" tooltips="1" connect="1" arrows="1" fold="1" page="1" pageScale="1" pageWidth="1169" pageHeight="826" background="none" math="0" shadow="0">
      <root>
        <mxCell id="0" />
        <mxCell id="1" parent="0" />
        <mxCell id="uDLymxrox1xTa2X5VVM9-57" value="" style="edgeStyle=orthogonalEdgeStyle;rounded=0;orthogonalLoop=1;jettySize=auto;html=1;entryX=0.5;entryY=0;entryDx=0;entryDy=0;" edge="1" parent="1" target="uDLymxrox1xTa2X5VVM9-59">
          <mxGeometry relative="1" as="geometry">
            <mxPoint x="585" y="150" as="sourcePoint" />
            <mxPoint x="584.9999999999998" y="210" as="targetPoint" />
          </mxGeometry>
        </mxCell>
        <mxCell id="uDLymxrox1xTa2X5VVM9-41" value="" style="ellipse;shape=startState;fillColor=#000000;strokeColor=#ff0000;" vertex="1" parent="1">
          <mxGeometry x="570" y="130" width="30" height="30" as="geometry" />
        </mxCell>
        <mxCell id="uDLymxrox1xTa2X5VVM9-42" value="&lt;h1&gt;&lt;font style=&quot;font-size: 10px;&quot;&gt;Посещение сайта&lt;/font&gt;&lt;/h1&gt;" style="text;html=1;strokeColor=none;fillColor=none;spacing=5;spacingTop=-20;whiteSpace=wrap;overflow=hidden;rounded=0;" vertex="1" parent="1">
          <mxGeometry x="600" y="120" width="100" height="40" as="geometry" />
        </mxCell>
        <mxCell id="uDLymxrox1xTa2X5VVM9-50" value="" style="edgeStyle=orthogonalEdgeStyle;rounded=0;orthogonalLoop=1;jettySize=auto;html=1;" edge="1" parent="1" source="uDLymxrox1xTa2X5VVM9-47" target="uDLymxrox1xTa2X5VVM9-49">
          <mxGeometry relative="1" as="geometry" />
        </mxCell>
        <mxCell id="uDLymxrox1xTa2X5VVM9-72" value="Есть аккаунт" style="edgeLabel;html=1;align=center;verticalAlign=middle;resizable=0;points=[];" vertex="1" connectable="0" parent="uDLymxrox1xTa2X5VVM9-50">
          <mxGeometry x="-0.3392" y="-1" relative="1" as="geometry">
            <mxPoint as="offset" />
          </mxGeometry>
        </mxCell>
        <mxCell id="uDLymxrox1xTa2X5VVM9-52" value="" style="edgeStyle=orthogonalEdgeStyle;rounded=0;orthogonalLoop=1;jettySize=auto;html=1;" edge="1" parent="1" source="uDLymxrox1xTa2X5VVM9-47" target="uDLymxrox1xTa2X5VVM9-51">
          <mxGeometry relative="1" as="geometry" />
        </mxCell>
        <mxCell id="uDLymxrox1xTa2X5VVM9-71" value="Нет аккаунта" style="edgeLabel;html=1;align=center;verticalAlign=middle;resizable=0;points=[];" vertex="1" connectable="0" parent="uDLymxrox1xTa2X5VVM9-52">
          <mxGeometry x="-0.3517" relative="1" as="geometry">
            <mxPoint as="offset" />
          </mxGeometry>
        </mxCell>
        <mxCell id="uDLymxrox1xTa2X5VVM9-47" value="&lt;font color=&quot;#f0f0f0&quot;&gt;Проверка на наличие аккаунта&lt;/font&gt;" style="rhombus;whiteSpace=wrap;html=1;fillColor=#000000;strokeColor=#ff0000;" vertex="1" parent="1">
          <mxGeometry x="502" y="300" width="165" height="90" as="geometry" />
        </mxCell>
        <mxCell id="uDLymxrox1xTa2X5VVM9-65" value="" style="edgeStyle=orthogonalEdgeStyle;rounded=0;orthogonalLoop=1;jettySize=auto;html=1;entryX=0.5;entryY=0;entryDx=0;entryDy=0;" edge="1" parent="1" source="uDLymxrox1xTa2X5VVM9-49" target="uDLymxrox1xTa2X5VVM9-60">
          <mxGeometry relative="1" as="geometry">
            <mxPoint x="570" y="550" as="targetPoint" />
          </mxGeometry>
        </mxCell>
        <mxCell id="uDLymxrox1xTa2X5VVM9-49" value="&lt;font color=&quot;#f0f0f0&quot;&gt;Авторизация&lt;br&gt;&lt;/font&gt;" style="rounded=1;whiteSpace=wrap;html=1;fillColor=#000000;strokeColor=#ff0000;" vertex="1" parent="1">
          <mxGeometry x="705" y="400" width="120" height="60" as="geometry" />
        </mxCell>
        <mxCell id="uDLymxrox1xTa2X5VVM9-61" value="" style="edgeStyle=orthogonalEdgeStyle;rounded=0;orthogonalLoop=1;jettySize=auto;html=1;" edge="1" parent="1" source="uDLymxrox1xTa2X5VVM9-51" target="uDLymxrox1xTa2X5VVM9-60">
          <mxGeometry relative="1" as="geometry" />
        </mxCell>
        <mxCell id="uDLymxrox1xTa2X5VVM9-51" value="&lt;font color=&quot;#ebebeb&quot;&gt;Регистрация&lt;/font&gt;" style="rounded=1;whiteSpace=wrap;html=1;fillColor=#000000;strokeColor=#ff0000;" vertex="1" parent="1">
          <mxGeometry x="345" y="400" width="120" height="60" as="geometry" />
        </mxCell>
        <mxCell id="uDLymxrox1xTa2X5VVM9-53" value="&lt;h1 style=&quot;font-size: 10px;&quot;&gt;&lt;font color=&quot;#f2f2f2&quot;&gt;Регистрация&amp;nbsp;&lt;/font&gt;&lt;/h1&gt;" style="text;html=1;strokeColor=none;fillColor=none;spacing=5;spacingTop=-20;whiteSpace=wrap;overflow=hidden;rounded=0;" vertex="1" parent="1">
          <mxGeometry x="385" y="250" width="80" height="10" as="geometry" />
        </mxCell>
        <mxCell id="uDLymxrox1xTa2X5VVM9-54" value="&lt;h1 style=&quot;border-color: var(--border-color); font-size: 10px;&quot;&gt;&lt;font style=&quot;border-color: var(--border-color);&quot; color=&quot;#f0f0f0&quot;&gt;Авторизация&lt;/font&gt;&lt;/h1&gt;" style="text;html=1;strokeColor=none;fillColor=none;spacing=5;spacingTop=-20;whiteSpace=wrap;overflow=hidden;rounded=0;" vertex="1" parent="1">
          <mxGeometry x="705" y="250" width="80" height="20" as="geometry" />
        </mxCell>
        <mxCell id="uDLymxrox1xTa2X5VVM9-55" value="&lt;h1 style=&quot;border-color: var(--border-color); color: rgb(0, 0, 0); font-family: Helvetica; font-style: normal; font-variant-ligatures: normal; font-variant-caps: normal; letter-spacing: normal; orphans: 2; text-align: left; text-indent: 0px; text-transform: none; widows: 2; word-spacing: 0px; -webkit-text-stroke-width: 0px; background-color: rgb(251, 251, 251); text-decoration-thickness: initial; text-decoration-style: initial; text-decoration-color: initial; font-size: 10px;&quot;&gt;&lt;font color=&quot;#f0f0f0&quot; style=&quot;border-color: var(--border-color);&quot;&gt;Авторизация&lt;/font&gt;&lt;/h1&gt;" style="text;whiteSpace=wrap;html=1;" vertex="1" parent="1">
          <mxGeometry x="1020" y="130" width="100" height="50" as="geometry" />
        </mxCell>
        <mxCell id="uDLymxrox1xTa2X5VVM9-69" value="" style="edgeStyle=orthogonalEdgeStyle;rounded=0;orthogonalLoop=1;jettySize=auto;html=1;" edge="1" parent="1" source="uDLymxrox1xTa2X5VVM9-59" target="uDLymxrox1xTa2X5VVM9-47">
          <mxGeometry relative="1" as="geometry" />
        </mxCell>
        <mxCell id="uDLymxrox1xTa2X5VVM9-59" value="&lt;font color=&quot;#fcfcfc&quot;&gt;Просмотр сайта&amp;nbsp;&lt;/font&gt;" style="rounded=1;whiteSpace=wrap;html=1;fillColor=#000000;strokeColor=#ff0000;" vertex="1" parent="1">
          <mxGeometry x="525" y="210" width="120" height="60" as="geometry" />
        </mxCell>
        <mxCell id="uDLymxrox1xTa2X5VVM9-74" value="" style="edgeStyle=orthogonalEdgeStyle;rounded=0;orthogonalLoop=1;jettySize=auto;html=1;" edge="1" parent="1" source="uDLymxrox1xTa2X5VVM9-60" target="uDLymxrox1xTa2X5VVM9-73">
          <mxGeometry relative="1" as="geometry" />
        </mxCell>
        <mxCell id="uDLymxrox1xTa2X5VVM9-94" value="Приобрести товар" style="edgeLabel;html=1;align=center;verticalAlign=middle;resizable=0;points=[];" vertex="1" connectable="0" parent="uDLymxrox1xTa2X5VVM9-74">
          <mxGeometry x="-0.2041" y="-1" relative="1" as="geometry">
            <mxPoint as="offset" />
          </mxGeometry>
        </mxCell>
        <mxCell id="uDLymxrox1xTa2X5VVM9-76" value="" style="edgeStyle=orthogonalEdgeStyle;rounded=0;orthogonalLoop=1;jettySize=auto;html=1;" edge="1" parent="1" source="uDLymxrox1xTa2X5VVM9-60" target="uDLymxrox1xTa2X5VVM9-75">
          <mxGeometry relative="1" as="geometry" />
        </mxCell>
        <mxCell id="uDLymxrox1xTa2X5VVM9-92" value="Товар понравился" style="edgeLabel;html=1;align=center;verticalAlign=middle;resizable=0;points=[];" vertex="1" connectable="0" parent="uDLymxrox1xTa2X5VVM9-76">
          <mxGeometry x="-0.1572" y="-1" relative="1" as="geometry">
            <mxPoint as="offset" />
          </mxGeometry>
        </mxCell>
        <mxCell id="uDLymxrox1xTa2X5VVM9-60" value="&lt;font color=&quot;#ffffff&quot;&gt;Просмотр товаров&lt;/font&gt;" style="rhombus;whiteSpace=wrap;html=1;fillColor=#000000;strokeColor=#ff0000;rounded=1;" vertex="1" parent="1">
          <mxGeometry x="510" y="550" width="150" height="80" as="geometry" />
        </mxCell>
        <mxCell id="uDLymxrox1xTa2X5VVM9-78" value="" style="edgeStyle=orthogonalEdgeStyle;rounded=0;orthogonalLoop=1;jettySize=auto;html=1;" edge="1" parent="1" source="uDLymxrox1xTa2X5VVM9-73" target="uDLymxrox1xTa2X5VVM9-77">
          <mxGeometry relative="1" as="geometry" />
        </mxCell>
        <mxCell id="uDLymxrox1xTa2X5VVM9-73" value="&lt;font color=&quot;#f5f5f5&quot;&gt;Поместить товар в корзину&lt;/font&gt;" style="whiteSpace=wrap;html=1;fillColor=#000000;strokeColor=#ff0000;rounded=1;" vertex="1" parent="1">
          <mxGeometry x="525" y="680" width="120" height="60" as="geometry" />
        </mxCell>
        <mxCell id="uDLymxrox1xTa2X5VVM9-75" value="&lt;font color=&quot;#f0f0f0&quot;&gt;Поместить товар в избранное&lt;/font&gt;" style="whiteSpace=wrap;html=1;fillColor=#000000;strokeColor=#ff0000;rounded=1;" vertex="1" parent="1">
          <mxGeometry x="225" y="560" width="120" height="60" as="geometry" />
        </mxCell>
        <mxCell id="uDLymxrox1xTa2X5VVM9-77" value="&lt;font color=&quot;#ffffff&quot;&gt;Оформить заказ&lt;/font&gt;" style="whiteSpace=wrap;html=1;fillColor=#000000;strokeColor=#ff0000;rounded=1;" vertex="1" parent="1">
          <mxGeometry x="524.5" y="820" width="120" height="60" as="geometry" />
        </mxCell>
        <mxCell id="uDLymxrox1xTa2X5VVM9-90" value="" style="edgeStyle=orthogonalEdgeStyle;rounded=0;orthogonalLoop=1;jettySize=auto;html=1;" edge="1" parent="1" source="uDLymxrox1xTa2X5VVM9-81" target="uDLymxrox1xTa2X5VVM9-89">
          <mxGeometry relative="1" as="geometry" />
        </mxCell>
        <mxCell id="uDLymxrox1xTa2X5VVM9-81" value="&lt;font color=&quot;#f5f5f5&quot;&gt;Связаться с исполнителем&lt;/font&gt;" style="whiteSpace=wrap;html=1;fillColor=#000000;strokeColor=#ff0000;rounded=1;" vertex="1" parent="1">
          <mxGeometry x="825" y="560" width="120" height="60" as="geometry" />
        </mxCell>
        <mxCell id="uDLymxrox1xTa2X5VVM9-87" value="" style="endArrow=classic;html=1;rounded=0;exitX=0.428;exitY=1.056;exitDx=0;exitDy=0;exitPerimeter=0;entryX=0.012;entryY=0.627;entryDx=0;entryDy=0;entryPerimeter=0;" edge="1" parent="1" source="uDLymxrox1xTa2X5VVM9-75" target="uDLymxrox1xTa2X5VVM9-73">
          <mxGeometry width="50" height="50" relative="1" as="geometry">
            <mxPoint x="370" y="700" as="sourcePoint" />
            <mxPoint x="420" y="650" as="targetPoint" />
            <Array as="points">
              <mxPoint x="276" y="720" />
            </Array>
          </mxGeometry>
        </mxCell>
        <mxCell id="uDLymxrox1xTa2X5VVM9-88" value="" style="endArrow=classic;html=1;rounded=0;exitX=1;exitY=0.5;exitDx=0;exitDy=0;entryX=0;entryY=0.5;entryDx=0;entryDy=0;" edge="1" parent="1" source="uDLymxrox1xTa2X5VVM9-60" target="uDLymxrox1xTa2X5VVM9-81">
          <mxGeometry width="50" height="50" relative="1" as="geometry">
            <mxPoint x="670" y="720" as="sourcePoint" />
            <mxPoint x="720" y="670" as="targetPoint" />
          </mxGeometry>
        </mxCell>
        <mxCell id="uDLymxrox1xTa2X5VVM9-91" value="Если возникли вопросы" style="edgeLabel;html=1;align=center;verticalAlign=middle;resizable=0;points=[];" vertex="1" connectable="0" parent="uDLymxrox1xTa2X5VVM9-88">
          <mxGeometry x="-0.024" y="2" relative="1" as="geometry">
            <mxPoint as="offset" />
          </mxGeometry>
        </mxCell>
        <mxCell id="uDLymxrox1xTa2X5VVM9-89" value="&lt;font color=&quot;#f2f2f2&quot;&gt;Оставить свою заявку&lt;/font&gt;" style="whiteSpace=wrap;html=1;fillColor=#000000;strokeColor=#ff0000;rounded=1;" vertex="1" parent="1">
          <mxGeometry x="825" y="680" width="120" height="60" as="geometry" />
        </mxCell>
        <mxCell id="uDLymxrox1xTa2X5VVM9-97" value="" style="ellipse;shape=startState;fillColor=#000000;strokeColor=#ff0000;" vertex="1" parent="1">
          <mxGeometry x="870" y="835" width="30" height="30" as="geometry" />
        </mxCell>
        <mxCell id="uDLymxrox1xTa2X5VVM9-100" value="" style="endArrow=classic;html=1;rounded=0;exitX=0.5;exitY=1;exitDx=0;exitDy=0;entryX=0.5;entryY=0;entryDx=0;entryDy=0;" edge="1" parent="1" source="uDLymxrox1xTa2X5VVM9-89" target="uDLymxrox1xTa2X5VVM9-97">
          <mxGeometry width="50" height="50" relative="1" as="geometry">
            <mxPoint x="840" y="830" as="sourcePoint" />
            <mxPoint x="890" y="780" as="targetPoint" />
          </mxGeometry>
        </mxCell>
        <mxCell id="uDLymxrox1xTa2X5VVM9-101" value="" style="endArrow=classic;html=1;rounded=0;exitX=1;exitY=0.5;exitDx=0;exitDy=0;entryX=0;entryY=0.5;entryDx=0;entryDy=0;" edge="1" parent="1" source="uDLymxrox1xTa2X5VVM9-77" target="uDLymxrox1xTa2X5VVM9-97">
          <mxGeometry width="50" height="50" relative="1" as="geometry">
            <mxPoint x="690" y="860" as="sourcePoint" />
            <mxPoint x="740" y="810" as="targetPoint" />
          </mxGeometry>
        </mxCell>
        <mxCell id="uDLymxrox1xTa2X5VVM9-102" value="&lt;h1&gt;&lt;font style=&quot;font-size: 10px;&quot;&gt;Конец деятельности&lt;/font&gt;&lt;/h1&gt;" style="text;html=1;strokeColor=none;fillColor=none;spacing=5;spacingTop=-20;whiteSpace=wrap;overflow=hidden;rounded=0;" vertex="1" parent="1">
          <mxGeometry x="900" y="830" width="135" height="35" as="geometry" />
        </mxCell>
      </root>
    </mxGraphModel>
  </diagram>
</mxfile>
